<?xml version="1.0" encoding="UTF-8"?>
<svg id="Layer_2" data-name="Layer 2" xmlns="http://www.w3.org/2000/svg" viewBox="0 0 280.96 100.04">
  <defs>
    <style>
      .cls-1 {
        fill: #000004;
        stroke-width: 0px;
      }
    </style>
  </defs>
  <g id="Layer_1-2" data-name="Layer 1">
    <g>
      <path class="cls-1" d="M29.93,41.45c1.88-7.18,3.74-14.36,5.66-21.52,1.32-4.92,2.73-9.81,4.09-14.72.97-3.49,3.7-4.64,6.85-4.64,2.98,0,5.29,1.6,6.13,4.59,2.6,9.33,5.1,18.69,7.62,28.04.54,2,1.04,4.01,1.5,6.03.16.68.57,1.39,1.11,1.29.63-.12,1.1-.78,1.29-1.59,2.41-10.3,4.72-20.63,7.34-30.87,1.64-6.41,7.33-9.35,13.65-7.51,5.17,1.5,8.23,6.29,6.93,11.53-4.35,17.66-9.56,35.08-15,52.43-2.58,8.23-8.53,11.32-15.78,9.28-4.16-1.17-6.42-4.12-7.67-7.99-2.07-6.4-4.05-12.83-6.06-19.25-.25-.8-.13-1.94-1.23-2.08-1.58-.19-1.23,1.37-1.47,2.12-2.1,6.52-3.78,13.19-6.15,19.61-2.6,7.04-8.19,9.52-15.33,7.52-4-1.12-6.27-3.95-7.45-7.7C10.32,48.07,4.99,30.03.35,11.81-.98,6.56,1.57,2.52,6.68.86c5.71-1.86,11.09.17,13.13,5.27,2.17,5.43,3.11,11.23,4.52,16.88,1.53,6.13,2.98,12.28,4.47,18.42.38,0,.75.01,1.13.02Z"/>
      <path class="cls-1" d="M212.5,33.23c-.74-1.81-2.1-2.48-4.04-2.59-4.37-.25-8.73-.15-13.09.18-3.58.27-4.87,2.54-5.22,5.67-.14,1.23.05,2.5-.1,3.72-.52,4.12-3.89,7.89-7.69,8.72-4.5.98-8.56-.63-11.01-4.48-3-4.73-3.09-9.67-.54-14.57,2.39-4.6,6.54-6.28,11.5-6.3,6.24-.02,12.51.29,18.73-.06,9.05-.5,14.31-9.59,10.22-17.21-3.22-6-11.25-7.77-17.51-3.54-2.02,1.36-3.51,1.57-5.67.55-3.53-1.66-7.32-2.28-11.25-1.85-14.09,1.52-21.76,10.42-26.33,22.9-.72-.67-.81-1.54-1.08-2.37C145.07,8.33,130.85-.41,116.64,1.64c-14.54,2.11-22.65,11.24-26.47,24.6-4.37,15.3-1.39,29.28,10.72,39.92,11.76,10.33,25.47,9.95,39.35,4.2,3.48-1.44,6.69-3.53,6.81-7.64.11-3.92-2.67-6.55-5.69-8.73-1.47-1.06-3.16-1.3-4.96-1.29-5.12.02-10.25.12-15.36-.13-5.85-.29-9.63-3.27-10.6-7.96,12.13.66,24.24.08,36.36.16,2.2.01,3.02.46,3.75,2.79,2.97,9.44,8.42,16.99,18.15,20.48,8.3,2.98,15.79,1.44,22.27-5.29,0,1.66.02,2.77,0,3.89-.21,8.8-4.32,12.6-13.23,12.28-5.09-.18-9.19-2.86-13.46-5.16-4.19-2.26-8.02-1.85-11.42,1.1-2.98,2.59-3.97,6.83-2.4,10.94,1.33,3.49,3.79,6.1,6.86,8.19,16.36,11.12,49.91,8.15,55.2-19.55.6-1.3.26-2.68.31-4.03.35-10.12-.64-20.26.62-30.38.28-2.23.72-4.72-.92-6.8ZM110.16,30.25c1.66-4.56,5.84-7.58,10.42-7.58,4.63,0,8.36,2.76,10.03,7.58h-20.44Z"/>
      <path class="cls-1" d="M278.22,23.15c-6.35-15.78-20.09-23.79-36.85-21.49-13.63,1.87-24.4,13.36-27.51,29.34-.76,4.01-1.21,8.01-.01,12.02.28,1.34.52,2.69.84,4.02,5.91,24.75,33.87,34.91,53.04,19.27,12.24-9.98,16.61-27.96,10.5-43.16ZM247.23,51.71c-7.38-.11-13.34-6.7-13.38-14.79-.03-7.71,6.38-14.22,13.95-14.16,6.91.05,13.29,7.08,13.25,14.6-.04,7.79-6.46,14.46-13.83,14.36Z"/>
    </g>
  </g>
</svg>