<svg width="117" height="42" viewBox="0 0 117 42" fill="none" xmlns="http://www.w3.org/2000/svg">
    <path d="M12.4015 17.4012C13.1805 14.3863 13.9512 11.3714 14.7468 8.36489C15.2938 6.29896 15.878 4.24563 16.4416 2.1839C16.8435 0.718433 17.9747 0.235543 19.28 0.235543C20.5148 0.235543 21.4719 0.90739 21.82 2.1629C22.8974 6.08061 23.9333 10.0109 24.9775 13.937C25.2012 14.7768 25.4084 15.6208 25.599 16.469C25.6653 16.7546 25.8352 17.0527 26.059 17.0107C26.32 16.9603 26.5148 16.6832 26.5935 16.3431C27.5921 12.0181 28.5493 7.68045 29.6349 3.38063C30.3145 0.68904 32.6722 -0.545479 35.291 0.227145C37.4333 0.857001 38.7013 2.86834 38.1626 5.06864C36.3601 12.4842 34.2012 19.7989 31.9471 27.0842C30.878 30.54 28.4126 31.8375 25.4084 30.9809C23.6847 30.4897 22.7482 29.2509 22.2302 27.6259C21.3725 24.9385 20.5521 22.2385 19.7192 19.5427C19.6156 19.2068 19.6653 18.7281 19.2095 18.6693C18.5548 18.5896 18.6998 19.2446 18.6004 19.5595C17.7302 22.2973 17.0341 25.0981 16.052 27.7939C14.9747 30.75 12.6584 31.7914 9.69983 30.9516C8.04237 30.4813 7.10176 29.2929 6.61281 27.7183C4.27579 20.181 2.06722 12.6059 0.144564 4.95527C-0.406542 2.75077 0.65009 1.05436 2.7675 0.357315C5.13352 -0.423707 7.36281 0.428699 8.20811 2.57021C9.10728 4.85029 9.49679 7.28574 10.081 9.6582C10.715 12.2322 11.3159 14.8146 11.9333 17.3928C12.0907 17.3928 12.244 17.397 12.4015 17.4012Z" fill="url(#paint0_linear_316_542)"/>
    <path d="M88.0521 13.9494C87.7455 13.1894 87.1819 12.9081 86.3781 12.8619C84.5673 12.7569 82.7606 12.7989 80.954 12.9375C79.4706 13.0508 78.9361 14.004 78.791 15.3183C78.733 15.8348 78.8117 16.3681 78.7496 16.8804C78.5341 18.6104 77.1377 20.1934 75.5631 20.5419C73.6985 20.9534 72.0162 20.2774 71.001 18.6608C69.7579 16.6746 69.7206 14.6003 70.7772 12.5428C71.7675 10.6112 73.4871 9.90577 75.5424 9.89737C78.128 9.88897 80.7261 10.0191 83.3035 9.87217C87.0535 9.66222 89.233 5.84529 87.5383 2.64562C86.204 0.126193 82.8767 -0.617038 80.2827 1.15916C79.4457 1.73023 78.8283 1.81841 77.9333 1.39011C76.4706 0.693064 74.9001 0.432723 73.2717 0.613282C67.4333 1.25154 64.2551 4.98869 62.3614 10.2291C62.0631 9.94776 62.0258 9.58244 61.9139 9.23392C60.1114 3.49383 54.2192 -0.176138 48.331 0.684666C42.3062 1.57066 38.9457 5.40439 37.3628 11.0143C35.552 17.4389 36.7868 23.3091 41.8048 27.7769C46.6777 32.1145 52.3587 31.9549 58.1101 29.5405C59.552 28.9358 60.8822 28.0582 60.9319 26.3324C60.9775 24.6864 59.8255 23.5821 58.5741 22.6667C57.965 22.2216 57.2647 22.1208 56.5189 22.125C54.3973 22.1334 52.2716 22.1754 50.1542 22.0704C47.7302 21.9486 46.1639 20.6973 45.762 18.728C50.7882 19.0051 55.8062 18.7615 60.8283 18.7951C61.7399 18.7993 62.0797 18.9883 62.3822 19.9667C63.6128 23.9306 65.8711 27.1008 69.9029 28.5663C73.3421 29.8176 76.4457 29.171 79.1308 26.345C79.1308 27.0421 79.1391 27.5082 79.1308 27.9784C79.0438 31.6736 77.3407 33.2692 73.6488 33.1349C71.5396 33.0593 69.8407 31.9339 68.0714 30.9682C66.3352 30.0192 64.7482 30.1913 63.3393 31.4301C62.1045 32.5176 61.6943 34.298 62.3449 36.0238C62.896 37.4893 63.9153 38.5852 65.1874 39.4628C71.9664 44.1322 85.8684 42.8851 88.0604 31.2537C88.309 30.7078 88.1681 30.1284 88.1888 29.5615C88.3339 25.3121 87.9236 21.0542 88.4457 16.8048C88.5618 15.8684 88.7441 14.8228 88.0645 13.9494H88.0521ZM45.646 12.6981C46.3338 10.7834 48.0658 9.51525 49.9636 9.51525C51.8821 9.51525 53.4277 10.6742 54.1197 12.6981H45.6501H45.646Z" fill="url(#paint1_linear_316_542)"/>
    <path d="M115.284 9.71681C112.653 3.09072 106.959 -0.272712 100.015 0.693068C94.3668 1.47829 89.9041 6.30299 88.6154 13.0131C88.3005 14.6969 88.114 16.3765 88.6113 18.0603C88.7273 18.623 88.8267 19.1899 88.9593 19.7483C91.4082 30.141 102.994 34.4072 110.937 27.8399C116.009 23.6492 117.82 16.0994 115.288 9.71681H115.284ZM102.443 21.7093C99.3848 21.6631 96.9151 18.8959 96.8986 15.4989C96.8861 12.2614 99.5422 9.52786 102.679 9.55305C105.542 9.57405 108.186 12.526 108.169 15.6837C108.153 18.9547 105.493 21.7555 102.439 21.7135L102.443 21.7093Z" fill="url(#paint2_linear_316_542)"/>
    <defs>
        <linearGradient id="paint0_linear_316_542" x1="26.9422" y1="-2.42209e-07" x2="16.0407" y2="32.7975" gradientUnits="userSpaceOnUse">
            <stop stop-color="#2DEBC9"/>
            <stop offset="1" stop-color="#00BCD4"/>
        </linearGradient>
        <linearGradient id="paint1_linear_316_542" x1="73.1555" y1="0.184601" x2="58.7273" y2="44.2121" gradientUnits="userSpaceOnUse">
            <stop stop-color="#2DEBC9"/>
            <stop offset="1" stop-color="#00BCD4"/>
        </linearGradient>
        <linearGradient id="paint2_linear_316_542" x1="108.092" y1="0.529968" x2="94.9862" y2="30.244" gradientUnits="userSpaceOnUse">
            <stop stop-color="#2DEBC9"/>
            <stop offset="1" stop-color="#00BCD4"/>
        </linearGradient>
    </defs>
</svg>
