<svg width="260" height="82" viewBox="0 0 260 82" fill="none" xmlns="http://www.w3.org/2000/svg">
    <path d="M27.6953 33.974C29.4349 28.0877 31.1561 22.2014 32.9328 16.3315C34.1543 12.298 35.4591 8.28912 36.7176 4.26382C37.6152 1.40266 40.1415 0.459871 43.0564 0.459871C45.814 0.459871 47.9516 1.77158 48.7289 4.22283C51.1349 11.8717 53.4483 19.5452 55.7802 27.2105C56.2799 28.8501 56.7426 30.498 57.1683 32.154C57.3163 32.7115 57.6957 33.2935 58.1954 33.2116C58.7784 33.1132 59.2133 32.5721 59.3891 31.908C61.6193 23.4639 63.7569 14.9952 66.1813 6.6003C67.6989 1.34527 72.9643 -1.06499 78.8126 0.443475C83.5968 1.6732 86.4284 5.60012 85.2254 9.89596C81.2001 24.3739 76.3789 38.6551 71.3449 52.879C68.9575 59.6261 63.4515 62.1593 56.7426 60.4869C52.8931 59.5277 50.8017 57.1092 49.645 53.9365C47.7295 48.6897 45.8973 43.4183 44.0373 38.155C43.8059 37.4992 43.917 36.5646 42.8991 36.4498C41.437 36.2941 41.7609 37.573 41.5388 38.1878C39.5955 43.533 38.0409 49.0012 35.8478 54.2644C33.4418 60.036 28.269 62.0691 21.6618 60.4295C17.9604 59.5113 15.8598 57.1912 14.7679 54.1169C9.54877 39.4012 4.61656 24.6117 0.322844 9.67461C-0.907897 5.37057 1.45179 2.05851 6.18043 0.697618C11.4643 -0.827241 16.4428 0.836987 18.3305 5.01805C20.3386 9.46966 21.2084 14.2246 22.5132 18.8566C23.929 23.882 25.2708 28.9239 26.6496 33.9576C27.0012 33.9576 27.3436 33.9658 27.6953 33.974Z" fill="url(#paint0_linear_316_542)"/>
    <path d="M196.64 27.2347C195.955 25.7508 194.696 25.2016 192.901 25.1114C188.857 24.9064 184.823 24.9884 180.788 25.259C177.475 25.4803 176.282 27.3413 175.958 29.9073C175.828 30.9157 176.004 31.9569 175.865 32.957C175.384 36.3347 172.266 39.4254 168.749 40.1058C164.585 40.9093 160.828 39.5894 158.561 36.4331C155.785 32.5553 155.701 28.5054 158.061 24.4883C160.273 20.7172 164.113 19.3399 168.703 19.3235C174.477 19.3071 180.279 19.5612 186.035 19.2743C194.41 18.8644 199.277 11.4123 195.492 5.16525C192.513 0.246348 185.082 -1.20473 179.289 2.2631C177.42 3.37805 176.041 3.55021 174.042 2.714C170.776 1.3531 167.269 0.844814 163.632 1.19733C150.593 2.44346 143.496 9.73983 139.267 19.9711C138.601 19.4219 138.517 18.7086 138.267 18.0282C134.242 6.82128 121.083 -0.343921 107.934 1.3367C94.479 3.06652 86.9743 10.5514 83.4394 21.5042C79.3955 34.0474 82.1531 45.5084 93.3593 54.2313C104.242 62.7 116.928 62.3885 129.773 57.6745C132.993 56.494 135.963 54.7806 136.074 51.4111C136.176 48.1974 133.604 46.0413 130.809 44.2541C129.449 43.3851 127.885 43.1884 126.219 43.1965C121.481 43.2129 116.734 43.2949 112.006 43.09C106.592 42.8522 103.094 40.4092 102.197 36.5642C113.421 37.1053 124.628 36.6298 135.843 36.6954C137.879 36.7036 138.638 37.0725 139.313 38.9827C142.062 46.7218 147.105 52.9114 156.109 55.7725C163.789 58.2156 170.72 56.9531 176.717 51.4357C176.717 52.7966 176.735 53.7066 176.717 54.6248C176.522 61.8392 172.719 64.9545 164.474 64.6921C159.764 64.5446 155.97 62.3475 152.018 60.4619C148.141 58.6091 144.597 58.9452 141.451 61.3637C138.693 63.487 137.777 66.963 139.23 70.3325C140.461 73.1936 142.737 75.3334 145.578 77.0468C160.717 86.1631 191.763 83.7283 196.658 61.0194C197.213 59.9536 196.899 58.8223 196.945 57.7155C197.269 49.419 196.353 41.106 197.519 32.8095C197.778 30.9813 198.185 28.9399 196.668 27.2347H196.64ZM101.938 24.7917C103.474 21.0533 107.342 18.5775 111.58 18.5775C115.864 18.5775 119.316 20.8401 120.861 24.7917H101.947H101.938Z" fill="url(#paint1_linear_316_542)"/>
    <path d="M257.454 18.971C251.578 6.03432 238.864 -0.532416 223.354 1.35316C210.742 2.88622 200.775 12.3059 197.898 25.4066C197.194 28.694 196.778 31.9733 197.888 35.2608C198.147 36.3593 198.369 37.4661 198.666 38.5564C204.135 58.8469 230.008 67.1762 247.747 54.3543C259.074 46.1725 263.118 31.4322 257.464 18.971H257.454ZM228.777 42.385C221.948 42.2948 216.433 36.8922 216.396 30.2599C216.368 23.9391 222.299 18.6021 229.305 18.6513C235.699 18.6923 241.603 24.4556 241.566 30.6206C241.529 37.007 235.588 42.4752 228.768 42.3932L228.777 42.385Z" fill="url(#paint2_linear_316_542)"/>
    <defs>
        <linearGradient id="paint0_linear_316_542" x1="60.1679" y1="-4.72886e-07" x2="41.1136" y2="65.571" gradientUnits="userSpaceOnUse">
            <stop stop-color="#2DEBC9"/>
            <stop offset="1" stop-color="#00BCD4"/>
        </linearGradient>
        <linearGradient id="paint1_linear_316_542" x1="163.372" y1="0.360381" x2="138.169" y2="88.3299" gradientUnits="userSpaceOnUse">
            <stop stop-color="#2DEBC9"/>
            <stop offset="1" stop-color="#00BCD4"/>
        </linearGradient>
        <linearGradient id="paint2_linear_316_542" x1="241.393" y1="1.03473" x2="218.13" y2="61.3637" gradientUnits="userSpaceOnUse">
            <stop stop-color="#2DEBC9"/>
            <stop offset="1" stop-color="#00BCD4"/>
        </linearGradient>
    </defs>
</svg>
